<?xml version="1.0" encoding="iso-8859-1"?>
<!-- Generator: Adobe Illustrator 19.0.0, SVG Export Plug-In . SVG Version: 6.00 Build 0)  -->
<svg version="1.1" id="Capa_1" xmlns="http://www.w3.org/2000/svg" xmlns:xlink="http://www.w3.org/1999/xlink" x="0px" y="0px"
	 viewBox="0 0 512 512" style="enable-background:new 0 0 512 512;" xml:space="preserve">
<path style="fill:#B6E4EA;" d="M304.721,27.767H206.87c-0.565,0-1.116,0.062-1.646,0.18c-13.788,0.987-25.611,6.026-34.422,14.724
	c-9.362,9.243-14.519,22.062-14.519,36.095v32.011c0,4.183,3.391,7.574,7.574,7.574h33.325c4.183,0,7.574-3.391,7.574-7.574V78.765
	c0-1.392,1.133-2.525,2.525-2.525h97.44c1.392,0,2.525,1.133,2.525,2.525v32.011c0,4.183,3.391,7.574,7.574,7.574h33.325
	c4.183,0,7.574-3.391,7.574-7.574V78.765C355.719,50.644,332.841,27.767,304.721,27.767z"/>
<g>
	<path style="fill:#93D6F4;" d="M304.721,27.767h-22.217c28.121,0,50.998,22.877,50.998,50.998v32.011
		c0,4.183-3.391,7.574-7.574,7.574h22.217c4.183,0,7.574-3.391,7.574-7.574V78.765C355.719,50.644,332.841,27.767,304.721,27.767z"
		/>
	<path style="fill:#93D6F4;" d="M182.54,78.765v32.011c0,4.183-3.391,7.574-7.574,7.574h22.217c4.183,0,7.574-3.391,7.574-7.574
		V78.765c0-1.392,1.133-2.525,2.525-2.525h-22.217C183.673,76.24,182.54,77.372,182.54,78.765z"/>
</g>
<g>
	<path style="fill:#FF902C;" d="M98.827,406.784c-21.318,0-38.662,17.343-38.662,38.662s17.343,38.662,38.662,38.662
		s38.662-17.343,38.662-38.662S120.144,406.784,98.827,406.784z"/>
	<path style="fill:#FF902C;" d="M410.657,406.91c-21.318,0-38.662,17.343-38.662,38.662s17.343,38.662,38.662,38.662
		s38.662-17.343,38.662-38.662S431.975,406.91,410.657,406.91z"/>
	<path style="fill:#FF902C;" d="M98.827,406.784c-3.861,0-7.588,0.576-11.108,1.634c15.919,4.785,27.553,19.569,27.553,37.027
		s-11.634,32.242-27.553,37.027c3.52,1.058,7.248,1.634,11.108,1.634c21.318,0,38.662-17.343,38.662-38.662
		C137.489,424.125,120.144,406.784,98.827,406.784z"/>
	<path style="fill:#FF902C;" d="M410.657,406.91c-3.861,0-7.588,0.576-11.108,1.634c15.919,4.785,27.553,19.569,27.553,37.027
		c0,17.458-11.634,32.242-27.553,37.027c3.52,1.058,7.248,1.634,11.108,1.634c21.318,0,38.662-17.343,38.662-38.662
		S431.975,406.91,410.657,406.91z"/>
</g>
<g>
	<path style="fill:#96D7EE;" d="M136.45,79.188H65.009c-4.183,0-7.574,3.391-7.574,7.574v24.007c0,4.183,3.391,7.574,7.574,7.574
		h71.441c4.183,0,7.574-3.391,7.574-7.574V86.762C144.023,82.579,140.632,79.188,136.45,79.188z"/>
	<path style="fill:#96D7EE;" d="M446.378,79.188h-71.441c-4.183,0-7.574,3.391-7.574,7.574v24.007c0,4.183,3.391,7.574,7.574,7.574
		h71.441c4.183,0,7.574-3.391,7.574-7.574V86.762C453.952,82.579,450.561,79.188,446.378,79.188z"/>
</g>
<g>
	<path style="fill:#6FC8F1;" d="M136.45,79.188h-23.227c4.183,0,7.574,3.391,7.574,7.574v24.007c0,4.183-3.391,7.574-7.574,7.574
		h23.227c4.183,0,7.574-3.391,7.574-7.574V86.762C144.023,82.579,140.632,79.188,136.45,79.188z"/>
	<path style="fill:#6FC8F1;" d="M446.378,79.188h-23.227c4.183,0,7.574,3.391,7.574,7.574v24.007c0,4.183-3.391,7.574-7.574,7.574
		h23.227c4.183,0,7.574-3.391,7.574-7.574V86.762C453.952,82.579,450.561,79.188,446.378,79.188z"/>
</g>
<path style="fill:#B64A07;" d="M462.699,103.464h-23.699l-30.509,17.921l-25.179-17.92H126.827L98.8,115.326l-27.661-11.861H49.301
	C22.117,103.465,0,126.342,0,154.463v244.36c0,28.121,22.117,50.998,49.301,50.998h21.837L98.8,429.73l28.027,20.091h256.486
	l26.525-16.725l29.496,16.725h23.365c27.184,0,49.301-22.877,49.301-50.998V154.462C512,126.342,489.883,103.464,462.699,103.464z"
	/>
<path style="fill:#99382A;" d="M462.699,103.464h-23.227c27.184,0,49.301,22.877,49.301,50.998v244.36
	c0,28.121-22.117,50.998-49.301,50.998h23.227c27.184,0,49.301-22.877,49.301-50.998v-244.36
	C512,126.342,489.883,103.464,462.699,103.464z"/>
<path style="fill:#FFA600;" d="M260.602,145.771c-39.058,0-69.655,19.089-69.655,43.459c0,24.369,30.596,43.458,69.655,43.458
	c39.058,0,69.654-19.089,69.654-43.458C330.256,164.86,299.66,145.771,260.602,145.771z"/>
<path style="fill:#F996B1;" d="M273.121,374.355l-47.101-99.06c-0.797-1.675-2.18-2.999-3.889-3.722l-47.716-20.194
	c-1.966-0.833-4.192-0.797-6.129,0.1c-1.938,0.896-3.407,2.567-4.048,4.604l-15.848,50.416c-0.574,1.824-0.436,3.797,0.385,5.524
	l47.101,99.06c1.298,2.728,4.013,4.323,6.846,4.323c1.09,0,2.197-0.236,3.247-0.736l63.564-30.223
	c1.814-0.862,3.211-2.411,3.884-4.303C274.091,378.252,273.984,376.17,273.121,374.355z"/>
<path style="fill:#F28598;" d="M273.121,374.355l-47.101-99.06c-0.797-1.675-2.18-2.999-3.889-3.722l-47.716-20.194
	c-1.966-0.833-4.192-0.797-6.129,0.1c-1.938,0.896-3.407,2.567-4.048,4.604l-1.962,6.241l45.716,19.348
	c1.709,0.723,3.092,2.047,3.889,3.722l47.101,99.06c0.705,1.482,0.896,3.145,0.578,4.735l9.972-4.741
	c1.814-0.862,3.211-2.411,3.884-4.303C274.091,378.252,273.984,376.17,273.121,374.355z"/>
<path style="fill:#FF902C;" d="M260.602,145.771c-3.968,0-7.843,0.207-11.613,0.587c33.341,3.357,58.041,20.979,58.041,42.873
	s-24.7,39.516-58.041,42.873c3.77,0.38,7.645,0.587,11.613,0.587c39.058,0,69.654-19.089,69.654-43.458
	C330.256,164.86,299.66,145.771,260.602,145.771z"/>
<path style="fill:#96D7EE;" d="M377.19,250.32h-35.887c-20.882,0-37.87,16.988-37.87,37.87v43.822
	c0,20.882,16.988,37.87,37.87,37.87h35.886c20.882,0,37.87-16.988,37.87-37.87V288.19C415.06,267.308,398.071,250.32,377.19,250.32z
	"/>
<g>
	<rect x="71.135" y="103.46" style="fill:#FFDB2D;" width="55.684" height="345.958"/>
	<rect x="383.313" y="103.46" style="fill:#FFDB2D;" width="55.684" height="345.958"/>
</g>
<g>
	<rect x="104.612" y="103.46" style="fill:#FFCA00;" width="22.217" height="345.958"/>
	<rect x="416.78" y="103.46" style="fill:#FFCA00;" width="22.217" height="345.958"/>
</g>
<g>
</g>
<g>
</g>
<g>
</g>
<g>
</g>
<g>
</g>
<g>
</g>
<g>
</g>
<g>
</g>
<g>
</g>
<g>
</g>
<g>
</g>
<g>
</g>
<g>
</g>
<g>
</g>
<g>
</g>
</svg>
